<svg xmlns="http://www.w3.org/2000/svg" xmlns:xlink="http://www.w3.org/1999/xlink" width="79" height="421" viewBox="0 0 79 421">
  <metadata><?xpacket begin="﻿" id="W5M0MpCehiHzreSzNTczkc9d"?>
<x:xmpmeta xmlns:x="adobe:ns:meta/" x:xmptk="Adobe XMP Core 5.6-c142 79.160924, 2017/07/13-01:06:39        ">
   <rdf:RDF xmlns:rdf="http://www.w3.org/1999/02/22-rdf-syntax-ns#">
      <rdf:Description rdf:about=""/>
   </rdf:RDF>
</x:xmpmeta>
                                                                                                    
                                                                                                    
                                                                                                    
                                                                                                    
                                                                                                    
                                                                                                    
                                                                                                    
                                                                                                    
                                                                                                    
                                                                                                    
                                                                                                    
                                                                                                    
                                                                                                    
                                                                                                    
                                                                                                    
                                                                                                    
                                                                                                    
                                                                                                    
                                                                                                    
                                                                                                    
                           
<?xpacket end="w"?></metadata>
<image id="Capa_1" data-name="Capa 1" x="2" y="2" width="75" height="417" xlink:href="<svg id="svgcontent" width="582" height="402" x="450.5" y="60" overflow="hidden" xmlns="http://www.w3.org/2000/svg" xmlns:se="http://svg-edit.googlecode.com" xmlns:xlink="http://www.w3.org/1999/xlink" viewBox="0 0 582 402"><!-- Created with Method Draw - http://github.com/duopixel/Method-Draw/ --><defs style="pointer-events: inherit"></defs><g style="pointer-events: inherit"><title style="pointer-events:inherit">background</title><rect x="-1" y="-1" width="582" height="402" id="canvas_background" fill="#fff" style="pointer-events:inherit"></rect><g id="canvasGrid" width="100%" height="100%" x="0" y="0" overflow="visible" display="none"><rect width="580" height="400" stroke-width="0" fill="url(#gridpattern)" style="pointer-events: none; display:visible;"></rect></g></g><g style="pointer-events:all"><title style="pointer-events: inherit">Layer 1</title><g id="svg_5"><path fill="#000000" d="M311.01334327485836,216.00000190734866 C317.1822325314417,213.42222397592334 323.2088995573257,209.28000150680543 331.10223336113836,202.95111224068538 C339.77778943379735,196.01777849409316 343.93778968175263,193.0666672070821 350.21334561136047,190.08000036239625 C358.55112388610854,186.06222234514024 367.7777911027274,184 378.88890287611235,184 L378.88890287611235,194.95111176384822 C376.6844583002728,194.75555619663663 374.3200137148965,194.66666730244955 371.777791341146,194.66666730244955 C354.7289014360641,194.66666730244955 346.48001205550315,198.6311119831933 330.65778889020294,211.27111273659602 C328.38223319901374,213.10222395684985 326.40889974806055,214.64889071570505 324.6133440854815,216.00000190734866 L311.01334327485836,216.00000190734866 zM268.9866741032071,216.00000190734866 L241.14667244381377,216.00000190734866 C239.3688945600722,214.64889071570505 237.41333888795646,213.10222395684985 235.10222763909238,211.27111273659602 C221.68000461684335,200.53333431879682 213.6977819188436,196.053334051768 201.11111450195312,194.95111176384822 L201.11111450195312,184 C212.22222627533807,184 221.44889349195694,186.06222234514024 229.8044495455424,190.08000036239625 C236.08000547515024,193.10222276475696 240.24000572310558,196.0355562729306 248.88000623808972,202.95111224068538 C256.79111782073977,209.28000150680543 262.8177848466238,213.44000175476077 268.9866741032071,216.00000190734866 zM311.01334327485836,184 L324.63112186431897,184 A70.34667085965481,70.34667085965481 0 0 1 311.5822321976557,192.1422227075365 C303.2266761440702,196.1600007247925 294.0000089274513,198.22222306993274 282.8888971540664,198.22222306993274 S262.5511181640626,196.1600007247925 254.19556211047706,192.1422227075365 A70.34667085965481,70.34667085965481 0 0 1 241.14667244381377,184 L268.9866741032071,184 C275.15556335979045,186.5600001525879 281.48445262591054,187.55555576748318 290.0000086890327,187.55555576748318 C298.5333425309924,187.55555576748318 304.84445401827503,186.5600001525879 311.01334327485836,184 z" id="svg_4" transform="rotate(90 290.00000000000006,200.00000000000003) "></path></g></g></svg>"/>
</svg>
